<svg width="385" height="76" viewBox="0 0 385 76" fill="none" xmlns="http://www.w3.org/2000/svg">
<g clip-path="url(#clip0_0_1)">
<path d="M218.93 0.708595C220.905 0.609116 222.882 0.538772 224.859 0.480368C225.959 0.438003 227.06 0.395638 228.193 0.35199C232.328 0.797655 234.047 1.45297 237.216 4.36023C239.149 7.94196 240.535 11.6947 241.93 15.5434C242.312 16.5484 242.693 17.5533 243.086 18.5888C245.416 24.7622 247.612 30.9882 249.787 37.225C250.786 34.5699 251.758 31.9088 252.716 29.237C253.259 27.7542 253.803 26.2715 254.363 24.7438C256.372 16.6973 254.357 10.3033 250.93 3.14302C249.799 2.33966 248.667 1.5363 247.501 0.708595C258.54 0.15269 258.54 0.15269 263.43 1.92581C269.308 7.99658 271.792 17.6564 274.644 25.6614C275.005 26.6625 275.366 27.6636 275.738 28.695C276.616 31.1309 277.488 33.5691 278.359 36.0077C280.577 32.4634 281.63 29.6282 282.867 25.6091C283.273 24.3029 283.678 22.9967 284.095 21.6508C284.512 20.2881 284.929 18.9254 285.359 17.5213C285.784 16.1445 286.21 14.7676 286.649 13.3491C287.7 9.94863 288.745 6.54661 289.787 3.14302C288.279 2.74134 286.77 2.33966 285.216 1.92581C285.216 1.52413 285.216 1.12245 285.216 0.708595C289.741 0.708595 294.267 0.708595 298.93 0.708595C297.799 1.51195 296.667 2.31531 295.501 3.14302C292.171 6.04853 291.392 8.53167 290.43 12.9568C289.203 18.5561 287.369 23.6651 285.334 28.9716C283.107 34.9483 281.177 41.0348 279.216 47.1148C278.8 48.3952 278.385 49.6755 277.957 50.9947C276.945 54.1129 275.937 57.232 274.93 60.352C274.176 60.352 273.421 60.352 272.644 60.352C270.873 55.739 269.104 51.1254 267.336 46.5113C266.734 44.942 266.132 43.373 265.53 41.8041C264.664 39.5475 263.799 37.2903 262.934 35.033C262.414 33.6753 261.893 32.3176 261.357 30.9187C260.483 28.5839 259.676 26.2199 258.93 23.8356C254.178 35.7819 250.332 48.095 246.359 60.352C242.93 59.1348 242.93 59.1348 241.839 57.1347C241.529 56.2692 241.218 55.4037 240.898 54.512C240.54 53.5326 240.182 52.5532 239.812 51.5441C239.437 50.4778 239.062 49.4116 238.676 48.313C238.28 47.2214 237.884 46.1299 237.477 45.0053C236.211 41.5037 234.963 37.9953 233.716 34.4862C232.871 32.1385 232.025 29.7912 231.178 27.4445C229.62 23.1266 228.07 18.8058 226.528 14.4819C226.196 13.5614 225.864 12.6409 225.521 11.6925C224.805 9.68029 224.127 7.65275 223.459 5.62142C222.422 2.73528 222.422 2.73528 218.93 0.708595Z" fill="#2786C4"/>
<path d="M-0.0700073 4.35199C4.10178 4.35199 8.27357 4.35199 12.5718 4.35199C12.951 6.27935 13.3303 8.20672 13.721 10.1925C34.58 10.1925 55.4389 10.1925 76.93 10.1925C74.6716 15.9309 72.2301 21.5246 69.6753 27.1299C69.2405 28.1132 68.8057 29.0965 68.3577 30.1095C65.4536 36.4526 62.6482 41.9806 56.2434 45.2355C53.5724 45.3358 50.8984 45.3606 48.2256 45.3496C47.0443 45.3471 47.0443 45.3471 45.8392 45.3446C43.3215 45.338 40.804 45.3234 38.2863 45.3085C36.5804 45.3026 34.8745 45.2973 33.1686 45.2925C28.9845 45.2796 24.8006 45.2595 20.6166 45.2355C18.9379 42.1431 18.3181 40.6863 18.3181 37.0588C30.8334 36.6733 43.3488 36.2878 56.2434 35.8907C56.2434 35.1197 56.2434 34.3488 56.2434 33.5545C42.5903 33.169 28.9372 32.7835 14.8703 32.3864C14.1118 29.6881 13.3533 26.9898 12.5718 24.2097C14.0219 24.1927 15.4721 24.1756 16.9662 24.1581C22.3339 24.0905 27.7009 24.0003 33.0681 23.9031C35.3935 23.8642 37.7189 23.8315 40.0444 23.805C43.3825 23.766 46.7196 23.7049 50.0572 23.6393C51.1012 23.6319 52.1451 23.6244 53.2207 23.6167C54.1869 23.5936 55.1531 23.5705 56.1486 23.5466C57.001 23.5337 57.8534 23.5207 58.7316 23.5073C61.3158 23.1967 61.3158 23.1967 63.1389 19.5373C45.6933 19.1518 28.2476 18.7663 10.2733 18.3692C9.51477 16.8273 8.75626 15.2854 7.97477 13.6968C5.0382 12.7486 5.0382 12.7486 2.2285 12.5287C1.46999 9.83038 0.711485 7.13207 -0.0700073 4.35199Z" fill="#0285BD"/>
<path d="M198.701 15.4896C200.155 15.4442 201.609 15.3988 203.107 15.352C207.983 15.9481 210.256 17.374 214.025 20.7281C219.239 28.2529 220.668 34.5301 219.598 43.808C217.701 49.7801 215.081 53.7578 210.682 57.8533C204.212 61.2091 196.078 60.7829 189.262 58.9257C183.97 56.2696 181.6 51.3587 179.345 45.8152C177.215 38.842 177.471 33.1176 180.241 26.4222C184.673 17.7932 190.026 15.6657 198.701 15.4896Z" fill="#43AFD3"/>
<path d="M89.93 0.35199C103.747 0.35199 117.563 0.35199 131.798 0.35199C131.798 5.13699 131.798 9.92199 131.798 14.852C127.272 13.6437 127.272 13.6437 125.858 11.5291C125.009 8.81032 125.009 8.81032 125.009 2.76866C119.408 2.76866 113.806 2.76866 108.035 2.76866C108.035 11.1424 108.035 19.5162 108.035 28.1437C111.023 28.1437 114.01 28.1437 117.088 28.1437C117.251 27.1966 117.415 26.2496 117.583 25.2739C118.219 22.102 118.219 22.102 119.351 19.6853C120.471 19.6853 121.592 19.6853 122.746 19.6853C122.746 26.0653 122.746 32.4453 122.746 39.0187C121.626 39.0187 120.505 39.0187 119.351 39.0187C117.698 35.8197 117.088 34.3128 117.088 30.5603C114.101 30.5603 111.113 30.5603 108.035 30.5603C108.035 38.9341 108.035 47.3078 108.035 55.9353C114.01 55.9353 119.985 55.9353 126.141 55.9353C126.514 53.5428 126.887 51.1503 127.272 48.6853C128.474 45.8155 128.474 45.8155 129.535 43.852C130.656 43.852 131.776 43.852 132.93 43.852C132.93 48.637 132.93 53.422 132.93 58.352C118.74 58.352 104.55 58.352 89.93 58.352C91.0503 57.5545 92.1705 56.757 93.3247 55.9353C93.8618 53.5056 93.8618 53.5056 93.814 50.6695C93.8476 49.0368 93.8476 49.0368 93.8819 47.3712C93.8891 46.1943 93.8963 45.0174 93.9038 43.8048C93.9342 41.9996 93.9342 41.9996 93.9653 40.1578C94.0268 36.3042 94.065 32.4508 94.1027 28.5968C94.1402 25.9881 94.1792 23.3795 94.2198 20.7709C94.3162 14.3676 94.3934 7.96417 94.4563 1.56032C92.9626 1.16157 91.4689 0.762823 89.93 0.35199Z" fill="#60D8E3"/>
<path d="M322.717 15.9666C327.595 17.6321 330.877 20.2043 334.138 24.4428C336.736 29.8341 335.911 36.1233 335.699 42.0221C335.673 43.3845 335.647 44.7468 335.62 46.1504C335.553 49.4995 335.459 52.8452 335.34 56.1927C336.855 56.5949 338.369 56.9972 339.93 57.4116C339.93 57.8139 339.93 58.2162 339.93 58.6306C338.09 58.7296 336.249 58.8004 334.408 58.8592C332.87 58.9228 332.87 58.9228 331.301 58.9877C327.977 58.5706 327.049 57.7116 325.012 54.9737C324.35 55.3257 323.687 55.6776 323.004 56.0403C322.152 56.4928 321.3 56.9454 320.422 57.4116C319.715 57.8312 319.008 58.2507 318.28 58.683C314.058 60.6954 310.029 60.6214 305.505 59.8496C301.923 58.3229 301.149 57.1987 298.62 53.7547C297.808 49.5588 297.598 45.7252 298.62 41.565C301.335 38.1592 303.912 37.6534 307.925 37.2843C309.7 37.1957 311.475 37.1248 313.251 37.07C314.16 37.0284 315.07 36.9868 316.007 36.9439C318.243 36.8437 320.48 36.7643 322.717 36.6891C322.617 34.5548 322.493 32.4217 322.359 30.2895C322.292 29.1016 322.226 27.9137 322.157 26.6897C321.503 22.8907 320.687 21.1235 318.127 18.4045C313.991 17.4133 313.991 17.4133 310.095 17.1856C310.095 21.6104 310.095 26.0353 310.095 30.5942C304.357 30.5942 304.357 30.5942 302.206 29.1467C300.915 26.9373 300.915 26.9373 300.915 23.9661C304.662 13.7654 314.079 15.0293 322.717 15.9666Z" fill="#1567B8"/>
<path d="M369.98 16.352C374.913 16.352 379.847 16.352 384.93 16.352C384.93 17.1396 384.93 17.9271 384.93 18.7386C383.636 19.0229 383.636 19.0229 382.316 19.3131C377.595 22.0411 376.788 25.9094 375.007 31.0257C374.643 32.0118 374.279 32.9979 373.904 34.0139C372.744 37.1683 371.612 40.3327 370.483 43.4993C369.346 46.6469 368.202 49.7919 367.05 52.9335C366.334 54.8873 365.628 56.8448 364.934 58.8066C362.435 65.693 359.965 71.8067 353.88 76.0164C350.43 76.4639 350.43 76.4639 346.98 76.0164C344.752 74.1519 344.752 74.1519 343.53 71.2432C344.032 63.5628 344.032 63.5628 345.83 61.6969C348.13 61.6482 350.431 61.6462 352.73 61.6969C352.73 65.241 352.73 68.7851 352.73 72.4365C356.545 68.9987 359.483 65.8877 360.77 60.7009C360.793 54.7772 357.123 49.5503 354.383 44.5434C353.763 43.3621 353.142 42.1807 352.503 40.9635C350.687 37.5177 348.835 34.0949 346.98 30.6714C346.43 29.6235 345.88 28.5756 345.314 27.4959C344.558 26.0544 344.558 26.0544 343.786 24.5838C343.346 23.7399 342.906 22.896 342.452 22.0265C341.227 19.7392 341.227 19.7392 338.93 17.5453C341.108 17.3831 343.289 17.2679 345.471 17.1724C346.685 17.1032 347.899 17.0339 349.15 16.9626C354.034 17.7575 355.414 19.5349 358.48 23.5117C360.306 26.5375 361.89 29.6485 363.439 32.8343C364.839 35.6646 366.238 38.4949 367.68 41.411C370.336 34.3229 372.993 27.2348 375.73 19.9319C372.884 19.3412 372.884 19.3412 369.98 18.7386C369.98 17.951 369.98 17.1634 369.98 16.352Z" fill="#0C59B3"/>
<path d="M218.93 0.708595C220.856 0.609116 222.783 0.538772 224.71 0.480368C225.783 0.438003 226.856 0.395638 227.962 0.35199C231.993 0.797655 233.669 1.45297 236.759 4.36023C238.643 7.94196 239.995 11.6947 241.355 15.5434C241.727 16.5484 242.099 17.5533 242.482 18.5888C244.754 24.7622 246.895 30.9882 249.016 37.225C250.854 31.6014 252.693 25.9779 254.587 20.184C255.69 20.9873 256.793 21.7907 257.93 22.6184C253.885 35.0705 249.84 47.5226 245.673 60.352C242.33 59.1348 242.33 59.1348 241.266 57.1347C240.964 56.2692 240.661 55.4037 240.349 54.512C240 53.5326 239.65 52.5532 239.29 51.5441C238.924 50.4778 238.559 49.4116 238.182 48.313C237.796 47.2214 237.41 46.1299 237.013 45.0053C235.779 41.5037 234.562 37.9953 233.346 34.4862C232.522 32.1385 231.698 29.7912 230.872 27.4445C229.353 23.1266 227.842 18.8058 226.338 14.4819C226.014 13.5614 225.69 12.6409 225.357 11.6925C224.658 9.68029 223.997 7.65275 223.346 5.62142C222.335 2.73528 222.335 2.73528 218.93 0.708595Z" fill="#3194C9"/>
<path d="M132.93 16.9574C135.108 16.7889 137.289 16.6692 139.471 16.5699C140.685 16.498 141.899 16.4261 143.15 16.352C148.034 17.1779 149.414 19.0246 152.48 23.1566C154.305 26.2992 155.891 29.5338 157.439 32.8429C157.852 33.702 158.265 34.561 158.69 35.4461C159.697 37.5435 160.69 39.6481 161.68 41.7543C162.81 38.9666 163.936 36.1767 165.058 33.3853C165.378 32.599 165.697 31.8127 166.026 31.0025C167.553 27.194 168.975 23.5162 169.73 19.4371C168.212 18.6188 166.694 17.8005 165.13 16.9574C169.684 16.9574 174.238 16.9574 178.93 16.9574C178.171 17.7757 177.412 18.594 176.63 19.4371C175.491 19.4371 174.353 19.4371 173.18 19.4371C172.734 20.957 172.288 22.4769 171.828 24.0429C169.498 31.5794 166.631 38.8572 163.764 46.1713C163.231 47.5401 162.699 48.909 162.149 50.3194C160.846 53.6651 159.54 57.0093 158.23 60.352C154.08 58.8607 153.584 57.2627 151.672 53.207C151.298 52.3844 150.925 51.5617 150.539 50.7141C149.946 49.4503 149.946 49.4503 149.341 48.161C148.077 45.4628 146.827 42.757 145.58 40.0495C144.331 37.3518 143.079 34.6561 141.819 31.9646C141.035 30.2891 140.257 28.6098 139.488 26.9266C137.683 23.0581 136.041 19.7581 132.93 16.9574Z" fill="#4DC0DA"/>
<path d="M195.713 18.5748C198.226 18.2777 198.226 18.2777 201.145 18.5748C206.261 24.3708 205.757 31.0085 205.831 38.5563C205.862 39.6141 205.894 40.672 205.926 41.7619C205.987 48.6535 205.391 52.5824 201.145 57.7949C198.361 58.5377 198.361 58.5377 195.713 57.7949C190.646 52.2517 191.11 45.1579 191.028 37.8135C190.996 36.8843 190.965 35.9551 190.932 34.9978C190.864 28.1357 192.196 24.2587 195.713 18.5748Z" fill="#D5EAF5"/>
<path d="M200.93 16.5242C205.054 16.0982 207.231 16.3628 210.947 18.4593C215.788 22.7972 219.092 27.705 219.893 34.5815C220.199 42.648 218.65 48.1899 214.103 54.6297C209.876 58.6117 206.412 58.5519 200.93 58.2021C201.645 57.0738 202.359 55.9456 203.096 54.7832C206.009 49.2363 205.934 44.1395 205.801 37.8841C205.813 36.3265 205.813 36.3265 205.825 34.7374C205.769 28.545 205.083 24.3103 202.028 18.9058C201.666 18.1199 201.303 17.334 200.93 16.5242Z" fill="#3AA2CE"/>
<path d="M322.642 37.6433C322.711 38.598 322.781 39.5527 322.852 40.5363C322.996 42.3994 322.996 42.3994 323.142 44.3001C323.235 45.5358 323.328 46.7715 323.424 48.0446C323.614 51.2409 323.614 51.2409 324.93 53.7435C319.319 58.8333 315.355 60.4961 308.109 60.3423C303.242 59.5896 301.672 57.9821 298.618 53.7435C297.809 49.4804 297.599 45.5855 298.618 41.3587C304.978 34.5343 314.513 36.2032 322.642 37.6433Z" fill="#1F74BD"/>
<path d="M-0.0700073 4.35199C4.05499 4.35199 8.17999 4.35199 12.43 4.35199C12.805 6.25035 13.18 8.1487 13.5664 10.1046C14.2701 10.0986 14.9739 10.0925 15.699 10.0863C18.9417 10.0622 22.1844 10.0474 25.4272 10.0327C26.5338 10.023 27.6405 10.0134 28.7808 10.0035C35.5525 9.98054 42.0785 10.3622 48.7936 11.2551C49.3561 13.5331 49.3561 13.5331 49.93 15.8572C41.5803 18.5412 33.6364 18.423 24.93 18.302C23.5076 18.2917 22.0853 18.2813 20.6198 18.2706C17.1321 18.2436 13.6448 18.2059 10.1573 18.1582C9.84379 17.4167 9.53031 16.6751 9.20734 15.9111C8.05774 13.2251 8.05774 13.2251 4.90158 12.6933C4.01096 12.5983 3.12033 12.5034 2.20272 12.4056C1.45272 9.74793 0.70272 7.09023 -0.0700073 4.35199Z" fill="#3DB1F8"/>
<path d="M37.93 9.35199C50.8 9.35199 63.67 9.35199 76.93 9.35199C75.199 13.4713 73.4019 17.4869 71.4641 21.5161C70.937 22.6139 70.4099 23.7116 69.8668 24.8427C69.4676 25.6708 69.0685 26.4988 68.6573 27.352C67.8773 27.352 67.0973 27.352 66.2936 27.352C66.6836 25.1245 67.0736 22.897 67.4754 20.602C66.3054 20.9732 65.1354 21.3445 63.93 21.727C64.32 20.6132 64.71 19.4995 65.1118 18.352C56.9218 17.9807 48.7318 17.6095 40.2936 17.227C42.6573 14.977 42.6573 14.977 46.3504 14.8364C47.4717 14.8828 48.5929 14.9292 49.7482 14.977C49.3582 13.492 48.9682 12.007 48.5664 10.477C45.0564 10.477 41.5464 10.477 37.93 10.477C37.93 10.1057 37.93 9.73449 37.93 9.35199Z" fill="#077DB0"/>
<path d="M17.93 36.352C29.15 36.352 40.37 36.352 51.93 36.352C49.686 37.6071 49.686 37.6071 47.3967 38.8875C47.0227 39.7504 46.6487 40.6132 46.2633 41.5022C45.13 43.9585 45.13 43.9585 43.0991 44.7382C40.5698 45.2315 38.257 45.3706 35.6915 45.3501C34.7857 45.346 33.8799 45.3419 32.9467 45.3377C32.0117 45.3271 31.0767 45.3164 30.1133 45.3055C29.1608 45.2998 28.2083 45.2941 27.2269 45.2882C24.8834 45.2733 22.54 45.2505 20.1967 45.2263C18.5413 41.87 17.93 40.289 17.93 36.352Z" fill="#0098E1"/>
<path d="M329.351 36.4692C330.273 47.9523 330.273 47.9523 328.012 51.6271C326.345 53.2129 326.345 53.2129 323.338 55.352C318.678 53.2867 318.678 53.2867 317.325 50.6313C317.149 48.6694 317.059 46.6995 317.024 44.7304C316.993 43.6837 316.962 42.6371 316.93 41.5587C317.06 40.658 317.19 39.7574 317.325 38.8295C321.707 35.9623 324.195 36.2782 329.351 36.4692Z" fill="#D4E7F3"/>
<path d="M12.93 24.352C19.0223 24.352 25.1146 24.352 31.3915 24.352C31.3915 25.2006 31.3915 26.0491 31.3915 26.9234C32.5338 27.3477 33.6761 27.772 34.8531 28.2091C34.8531 29.0577 34.8531 29.9063 34.8531 30.7806C42.4685 31.2048 50.0838 31.6291 57.93 32.0663C57.93 32.4906 57.93 32.9148 57.93 33.352C43.8415 33.352 29.7531 33.352 15.2377 33.352C14.4761 30.382 13.7146 27.412 12.93 24.352Z" fill="#5CBFF1"/>
<path d="M-0.0700073 4.35199C4.1913 4.35199 8.4526 4.35199 12.843 4.35199C13.2304 6.15199 13.6178 7.95199 14.0169 9.80654C18.2783 9.80654 22.5396 9.80654 26.93 9.80654C26.93 10.1665 26.93 10.5265 26.93 10.8974C24.6056 10.8974 22.2813 10.8974 19.8865 10.8974C19.4991 12.6974 19.1117 14.4974 18.7126 16.352C15.6135 16.352 12.5143 16.352 9.3213 16.352C8.93391 15.272 8.54651 14.192 8.14738 13.0793C6.21043 12.7193 4.27347 12.3593 2.27782 11.9884C1.50304 9.46835 0.728254 6.94835 -0.0700073 4.35199Z" fill="#5AB9FB"/>
<path d="M360.695 60.352C361.432 60.751 362.17 61.1499 362.93 61.561C361.499 67.6102 359.383 70.7078 355.106 74.8597C354.738 75.2586 354.369 75.6576 353.989 76.0686C350.776 76.4464 350.776 76.4464 347.283 76.0686C345.117 74.1796 345.117 74.1796 343.93 71.2327C344.418 63.4514 344.418 63.4514 346.165 61.561C348.4 61.5116 350.636 61.5095 352.871 61.561C352.871 65.1516 352.871 68.7423 352.871 72.4417C356.665 68.6622 359.137 65.7133 360.695 60.352Z" fill="#1D67B9"/>
<path d="M60.7392 52.4405C63.0574 55.6891 63.0574 55.6891 62.84 58.3963C61.8026 61.3783 61.2803 62.694 58.421 64.352C54.8713 64.2166 54.8713 64.2166 51.4665 63.2691C48.9686 59.7687 48.6052 58.6653 49.1483 54.6062C51.9338 50.014 55.8535 51.2787 60.7392 52.4405Z" fill="#094F71"/>
<path d="M35.5626 52.4186C37.1775 55.4875 37.0685 57.7059 36.7043 61.0974C34.7776 63.1993 34.7776 63.1993 32.1373 64.352C29.1402 64.2164 29.1402 64.2164 26.4285 63.2671C23.968 59.7603 23.61 58.6549 24.145 54.5883C26.8899 49.9857 30.7412 51.3157 35.5626 52.4186Z" fill="#01557B"/>
<path d="M55.9826 33.352C56.3647 34.5216 56.7468 35.6913 57.1405 36.8964C59.051 36.1166 60.9616 35.3368 62.93 34.5335C61.2294 42.3418 61.2294 42.3418 58.6964 44.2436C55.0936 45.469 51.956 45.3916 48.1668 45.3143C46.8116 45.293 45.4563 45.2717 44.0599 45.2497C42.5106 45.2086 42.5106 45.2086 40.93 45.1666C41.6748 44.8255 42.4196 44.4843 43.187 44.1328C45.7569 43.026 45.7569 43.026 46.5024 40.4408C47.8774 38.0778 47.8774 38.0778 52.0747 36.601C53.3643 36.3086 54.6539 36.0162 55.9826 35.7149C55.9826 34.9352 55.9826 34.1554 55.9826 33.352Z" fill="#0D8AC1"/>
<path d="M319.93 15.6695C319.559 16.5321 319.187 17.3946 318.805 18.2833C316.206 17.852 313.607 17.4207 310.93 16.9764C310.93 21.7203 310.93 26.4643 310.93 31.352C305.305 31.352 305.305 31.352 303.196 29.8001C301.93 27.4314 301.93 27.4314 301.93 24.2459C305.245 14.3769 312.057 15.0302 319.93 15.6695Z" fill="#1C72BC"/>
<path d="M284.376 0.35199C289.179 0.35199 293.982 0.35199 298.93 0.35199C297.729 1.14854 296.529 1.94509 295.292 2.76578C291.757 5.64667 290.931 8.10876 289.91 12.4964C287.866 20.5575 285.397 28.3973 280.738 35.352C279.241 30.8854 280.01 29.4346 281.529 25.0415C281.97 23.7463 282.412 22.4512 282.867 21.1167C283.34 19.7656 283.813 18.4144 284.3 17.0222C284.768 15.6571 285.237 14.2919 285.719 12.8853C286.879 9.5087 288.049 6.13586 289.227 2.76578C287.626 2.36751 286.025 1.96923 284.376 1.55889C284.376 1.16061 284.376 0.762335 284.376 0.35199Z" fill="#388AC7"/>
<path d="M129.385 44.352C130.555 44.352 131.725 44.352 132.93 44.352C132.93 48.972 132.93 53.592 132.93 58.352C124.35 58.352 115.77 58.352 106.93 58.352C106.93 57.967 106.93 57.582 106.93 57.1853C113.17 57.1853 119.41 57.1853 125.839 57.1853C126.229 54.4903 126.619 51.7953 127.021 49.0187C128.277 46.1749 128.277 46.1749 129.385 44.352Z" fill="#53CBDE"/>
<path d="M32.0476 11.352C37.58 11.352 43.1123 11.352 48.8123 11.352C49.1812 12.6573 49.55 13.9625 49.93 15.3074C43.5969 16.5189 37.3709 16.3874 30.93 16.2962C31.2988 14.6646 31.6676 13.033 32.0476 11.352Z" fill="#0098E1"/>
<path d="M37.93 9.35199C50.8 9.35199 63.67 9.35199 76.93 9.35199C76.54 10.1129 76.15 10.8737 75.7482 11.6577C69.1182 11.6577 62.4882 11.6577 55.6573 11.6577C58.5823 12.2283 58.5823 12.2283 61.5664 12.8105C61.5664 13.5713 61.5664 14.3322 61.5664 15.1161C57.4746 16.3465 53.7186 16.3863 49.4527 16.341C48.1791 16.3306 46.9055 16.3202 45.5933 16.3095C44.6244 16.2961 43.6555 16.2828 42.6573 16.269C42.6573 15.8885 42.6573 15.5081 42.6573 15.1161C44.9973 15.1161 47.3373 15.1161 49.7482 15.1161C49.3582 13.5944 48.9682 12.0727 48.5664 10.5048C45.0564 10.5048 41.5464 10.5048 37.93 10.5048C37.93 10.1244 37.93 9.74395 37.93 9.35199Z" fill="#1491C7"/>
<path d="M369.144 16.352C374.354 16.352 379.563 16.352 384.93 16.352C384.93 17.132 384.93 17.912 384.93 18.7156C384.024 18.8832 383.117 19.0508 382.184 19.2234C377.016 22.1075 376.119 26.5598 374.229 31.8634C373.851 32.8673 373.473 33.8712 373.084 34.9056C372.155 37.3813 371.248 39.8625 370.359 42.352C369.557 41.962 368.756 41.572 367.93 41.1702C370.073 33.9524 372.417 26.9005 375.216 19.8974C373.212 19.5074 371.209 19.1174 369.144 18.7156C369.144 17.9356 369.144 17.1556 369.144 16.352Z" fill="#3470BE"/>
<path d="M30.93 22.4944C33.0299 22.4548 35.1299 22.4267 37.23 22.4033C38.9841 22.3779 38.9841 22.3779 40.7737 22.352C43.7191 22.477 46.124 22.9218 48.93 23.9532C47.88 29.6058 47.88 29.6058 46.53 31.2469C44.3065 31.3523 42.08 31.3691 39.855 31.338C38.6407 31.3249 37.4264 31.3117 36.1753 31.2981C35.2364 31.2812 34.2974 31.2643 33.33 31.2469C33.33 29.8027 33.33 28.3586 33.33 26.8707C32.538 26.3893 31.746 25.9079 30.93 25.4119C30.93 24.4491 30.93 23.4864 30.93 22.4944Z" fill="#01A6F1"/>
<path d="M114.93 0.35199C120.54 0.35199 126.15 0.35199 131.93 0.35199C131.93 5.30199 131.93 10.252 131.93 15.352C127.073 14.102 127.073 14.102 125.555 11.9926C124.431 8.42408 124.48 5.32981 124.644 1.60199C121.439 1.60199 118.233 1.60199 114.93 1.60199C114.93 1.18949 114.93 0.77699 114.93 0.35199Z" fill="#52CBDE"/>
<path d="M17.93 36.352C22.22 36.352 26.51 36.352 30.93 36.352C29.76 36.7763 28.59 37.2006 27.3845 37.6377C27.7745 40.1834 28.1645 42.7291 28.5664 45.352C25.8364 45.352 23.1064 45.352 20.2936 45.352C18.5674 41.9482 17.93 40.3448 17.93 36.352Z" fill="#4DB6F5"/>
<path d="M35.395 36.3538C36.3581 36.3579 37.3213 36.3619 38.3136 36.3662C39.8154 36.3821 39.8154 36.3821 41.3476 36.3983C42.8692 36.4069 42.8692 36.4069 44.4216 36.4157C46.9244 36.4306 49.4272 36.4515 51.93 36.4776C51.93 36.8959 51.93 37.3143 51.93 37.7454C45.18 37.7454 38.43 37.7454 31.4754 37.7454C31.4754 39.8372 31.4754 41.929 31.4754 44.0842C34.4754 44.0842 37.4754 44.0842 40.5664 44.0842C40.5664 44.5026 40.5664 44.9209 40.5664 45.352C36.4414 45.352 32.3164 45.352 28.0664 45.352C26.93 40.2809 26.93 40.2809 26.93 37.7454C30.1392 36.5519 32.0768 36.3289 35.395 36.3538Z" fill="#2DA8E7"/>
<path d="M29.351 11.352C30.1153 11.737 30.8795 12.122 31.6668 12.5187C31.2847 14.0587 30.9026 15.5987 30.5089 17.1853C33.9479 17.1853 37.3868 17.1853 40.93 17.1853C40.93 17.5703 40.93 17.9553 40.93 18.352C33.67 18.352 26.41 18.352 18.93 18.352C20.4584 17.582 21.9868 16.812 23.5616 16.0187C24.3258 14.8637 25.09 13.7087 25.8774 12.5187C27.0237 12.1337 28.17 11.7487 29.351 11.352Z" fill="#24A9EA"/>
<path d="M27.4754 51.352C31.7595 51.7739 31.7595 51.7739 35.7482 52.477C36.1382 55.0757 36.5282 57.6745 36.93 60.352C36.15 59.9807 35.37 59.6095 34.5664 59.227C33.8277 56.9067 33.8277 56.9067 33.3845 54.727C31.0909 55.0377 31.0909 55.0377 28.6573 55.852C27.4873 57.5226 27.4873 57.5226 26.2936 59.227C25.5136 59.227 24.7336 59.227 23.93 59.227C24.8164 53.8832 24.8164 53.8832 27.4754 51.352Z" fill="#0F4A64"/>
<path d="M51.93 51.352C56.106 51.6905 56.106 51.6905 60.5913 52.4353C63.066 55.6853 63.066 55.6853 62.834 58.3937C61.7397 61.3416 61.0984 62.6737 58.1166 64.352C54.7913 64.0134 54.7913 64.0134 51.93 63.2687C54.4047 62.1853 56.8793 61.102 59.354 60.0187C60.1651 57.2807 60.1651 57.2807 60.5913 54.602C57.7331 53.887 54.8748 53.172 51.93 52.4353C51.93 52.0778 51.93 51.7203 51.93 51.352Z" fill="#275A71"/>
<path d="M375.585 20.352C376.006 20.352 376.427 20.352 376.861 20.352C377.241 26.029 376.03 30.0162 373.671 35.2599C373.079 36.5943 372.487 37.9287 371.877 39.3035C371.417 40.3095 370.956 41.3155 370.482 42.352C369.64 41.9699 368.798 41.5878 367.93 41.1941C370.181 34.1224 372.645 27.2133 375.585 20.352Z" fill="#2365B9"/>
<path d="M35.93 24.4265C44.7092 24.2625 44.7092 24.2625 48.93 25.5748C47.8959 30.0243 47.8959 30.0243 46.5664 31.3161C44.5972 31.3628 42.6263 31.3651 40.6573 31.3161C41.0473 30.1793 41.4373 29.0425 41.8391 27.8713C38.9141 26.7345 38.9141 26.7345 35.93 25.5748C35.93 25.1958 35.93 24.8169 35.93 24.4265Z" fill="#0098D7"/>
<path d="M12.93 24.352C19.0437 24.352 25.1574 24.352 31.4563 24.352C31.4563 25.122 31.4563 25.892 31.4563 26.6853C32.6026 27.0703 33.7489 27.4553 34.93 27.852C34.5479 29.007 34.1658 30.162 33.7721 31.352C33.0079 31.352 32.2437 31.352 31.4563 31.352C31.4563 30.197 31.4563 29.042 31.4563 27.852C25.3426 27.082 19.2289 26.312 12.93 25.5187C12.93 25.1337 12.93 24.7487 12.93 24.352Z" fill="#29AFF6"/>
<path d="M65.7078 29.352C66.4411 29.7232 67.1744 30.0945 67.93 30.477C66.4633 33.0757 64.9967 35.6745 63.4855 38.352C63.1189 37.2382 62.7522 36.1245 62.3744 34.977C60.9078 35.3482 59.4411 35.7195 57.93 36.102C58.2967 34.2457 58.6633 32.3895 59.0411 30.477C61.7911 31.5907 61.7911 31.5907 64.5967 32.727C64.9633 31.6132 65.33 30.4995 65.7078 29.352Z" fill="#057DB5"/>
<path d="M284.93 0.35199C289.55 0.35199 294.17 0.35199 298.93 0.35199C297.775 1.20056 296.62 2.04913 295.43 2.92342C294.24 4.18263 293.072 5.46779 291.93 6.78056C291.16 7.62913 290.39 8.4777 289.597 9.35199C289.597 7.23056 289.597 5.10913 289.597 2.92342C288.057 2.49913 286.517 2.07485 284.93 1.6377C284.93 1.21342 284.93 0.789133 284.93 0.35199Z" fill="#247CC0"/>
<path d="M23.93 58.352C24.7962 58.8047 25.6625 59.2575 26.555 59.7239C30.6619 61.0224 32.1887 60.3074 35.93 58.352C35.93 59.5593 35.93 60.7666 35.93 62.0105C32.33 64.4496 32.33 64.4496 29.255 64.2971C26.33 63.23 26.33 63.23 24.755 60.7148C24.4827 59.9351 24.2105 59.1553 23.93 58.352Z" fill="#1F5473"/>
<path d="M164.93 18.352C169.55 18.352 174.17 18.352 178.93 18.352C178.16 19.144 177.39 19.936 176.597 20.752C175.442 20.752 174.287 20.752 173.097 20.752C172.712 21.94 172.327 23.128 171.93 24.352C171.545 23.164 171.16 21.976 170.763 20.752C168.838 20.356 166.913 19.96 164.93 19.552C164.93 19.156 164.93 18.76 164.93 18.352Z" fill="#49B7D7"/>
<path d="M254.93 20.352C255.92 21.132 256.91 21.912 257.93 22.7156C257.507 24.2723 257.066 25.8223 256.617 27.369C256.374 28.2328 256.13 29.0966 255.879 29.9866C254.93 32.1702 254.93 32.1702 251.93 33.352C252.92 29.062 253.91 24.772 254.93 20.352Z" fill="#4E9FCF"/>
<path d="M32.13 11.352C33.714 11.352 35.298 11.352 36.93 11.352C36.534 13.002 36.138 14.652 35.73 16.352C34.146 16.352 32.562 16.352 30.93 16.352C31.326 14.702 31.722 13.052 32.13 11.352Z" fill="#05A6F8"/>
<path d="M360.93 60.352C361.59 60.742 362.25 61.132 362.93 61.5338C361.722 66.7703 360.413 69.7842 356.93 73.352C356.93 69.5748 357.477 68.1317 358.93 64.8577C359.301 64.0122 359.672 63.1667 360.055 62.2955C360.488 61.3335 360.488 61.3335 360.93 60.352Z" fill="#2C6EBD"/>
<path d="M23.93 25.352C26.24 26.144 28.55 26.936 30.93 27.752C30.93 28.94 30.93 30.128 30.93 31.352C29.005 31.352 27.08 31.352 25.0967 31.352C24.7117 29.372 24.3267 27.392 23.93 25.352Z" fill="#3CB4FD"/>
<path d="M31.93 38.352C33.91 38.352 35.89 38.352 37.93 38.352C36.94 38.946 36.94 38.946 35.93 39.552C35.2779 41.9815 35.2779 41.9815 34.93 44.352C33.94 44.352 32.95 44.352 31.93 44.352C31.93 42.372 31.93 40.392 31.93 38.352Z" fill="#06A7F8"/>
<path d="M288.93 7.35199C289.92 7.78099 290.91 8.20999 291.93 8.65199C290.94 12.513 289.95 16.374 288.93 20.352C287.94 19.065 286.95 17.778 285.93 16.452C287.242 11.6582 287.242 11.6582 288.93 7.35199Z" fill="#4D96CD"/>
</g>
<defs>
<clipPath id="clip0_0_1">
<rect width="385" height="76" fill="white"/>
</clipPath>
</defs>
</svg>
