<svg width="58" height="76" viewBox="0 0 58 76" fill="none" xmlns="http://www.w3.org/2000/svg">
<g clip-path="url(#clip0_0_1)">
<path d="M-0.0105438 4.35199C3.13184 4.35199 6.27423 4.35199 9.51184 4.35199C9.79752 6.27935 10.0832 8.20672 10.3775 10.1925C26.0895 10.1925 41.8014 10.1925 57.9895 10.1925C56.2884 15.9309 54.4493 21.5246 52.5249 27.1299C52.1974 28.1132 51.8699 29.0965 51.5324 30.1095C49.3449 36.4526 47.2318 41.9806 42.4074 45.2355C40.3954 45.3358 38.3813 45.3606 36.368 45.3496C35.4782 45.3471 35.4782 45.3471 34.5704 45.3446C32.674 45.338 30.7776 45.3234 28.8812 45.3085C27.5963 45.3026 26.3113 45.2973 25.0263 45.2925C21.8747 45.2796 18.7231 45.2595 15.5715 45.2355C14.3071 42.1431 13.8402 40.6863 13.8402 37.0588C23.2674 36.6733 32.6945 36.2878 42.4074 35.8907C42.4074 35.1197 42.4074 34.3488 42.4074 33.5545C32.1232 33.169 21.839 32.7835 11.2432 32.3864C10.6718 29.6881 10.1005 26.9898 9.51184 24.2097C10.6042 24.1927 11.6965 24.1756 12.8219 24.1581C16.8651 24.0905 20.9078 24.0003 24.9506 23.9031C26.7022 23.8642 28.4538 23.8315 30.2055 23.805C32.7199 23.766 35.2335 23.7049 37.7476 23.6393C38.534 23.6319 39.3203 23.6244 40.1305 23.6167C40.8583 23.5936 41.5861 23.5705 42.3359 23.5466C42.978 23.5337 43.62 23.5207 44.2816 23.5073C46.2281 23.1967 46.2281 23.1967 47.6014 19.5373C34.4605 19.1518 21.3196 18.7663 7.7805 18.3692C7.20916 16.8273 6.63781 15.2854 6.04916 13.6968C3.83719 12.7486 3.83719 12.7486 1.7208 12.5287C1.14946 9.83038 0.578113 7.13207 -0.0105438 4.35199Z" fill="#0285BD"/>
<path d="M-0.0105438 4.35199C3.12446 4.35199 6.25946 4.35199 9.48946 4.35199C9.77446 6.25035 10.0595 8.1487 10.3531 10.1046C10.888 10.0986 11.4228 10.0925 11.9739 10.0863C14.4383 10.0622 16.9028 10.0474 19.3673 10.0327C20.2084 10.023 21.0495 10.0134 21.916 10.0035C27.0625 9.98054 32.0223 10.3622 37.1258 11.2551C37.5533 13.5331 37.5533 13.5331 37.9895 15.8572C31.6437 18.5412 25.6063 18.423 18.9895 18.302C17.9085 18.2917 16.8275 18.2813 15.7137 18.2706C13.063 18.2436 10.4127 18.2059 7.76218 18.1582C7.52394 17.4167 7.2857 16.6751 7.04024 15.9111C6.16655 13.2251 6.16655 13.2251 3.76787 12.6933C3.09099 12.5983 2.41412 12.5034 1.71673 12.4056C1.14673 9.74793 0.576729 7.09023 -0.0105438 4.35199Z" fill="#3DB1F8"/>
<path d="M28.9895 9.35199C38.5595 9.35199 48.1295 9.35199 57.9895 9.35199C56.7023 13.4713 55.366 17.4869 53.9251 21.5161C53.5331 22.6139 53.1412 23.7116 52.7373 24.8427C52.4405 25.6708 52.1437 26.4988 51.8379 27.352C51.2579 27.352 50.6779 27.352 50.0804 27.352C50.3704 25.1245 50.6604 22.897 50.9592 20.602C50.0892 20.9732 49.2192 21.3445 48.3228 21.727C48.6128 20.6132 48.9028 19.4995 49.2016 18.352C43.1116 17.9807 37.0216 17.6095 30.747 17.227C32.5046 14.977 32.5046 14.977 35.2508 14.8364C36.0846 14.8828 36.9183 14.9292 37.7773 14.977C37.4873 13.492 37.1973 12.007 36.8985 10.477C34.2885 10.477 31.6785 10.477 28.9895 10.477C28.9895 10.1057 28.9895 9.73449 28.9895 9.35199Z" fill="#077DB0"/>
<path d="M13.9895 36.352C22.2395 36.352 30.4895 36.352 38.9895 36.352C37.3395 37.6071 37.3395 37.6071 35.6561 38.8875C35.3811 39.7504 35.1061 40.6132 34.8228 41.5022C33.9895 43.9585 33.9895 43.9585 32.4961 44.7382C30.6364 45.2315 28.9358 45.3706 27.0494 45.3501C26.3833 45.346 25.7173 45.3419 25.0311 45.3377C24.3436 45.3271 23.6561 45.3164 22.9478 45.3055C22.2474 45.2998 21.547 45.2941 20.8254 45.2882C19.1023 45.2733 17.3792 45.2505 15.6561 45.2263C14.4389 41.87 13.9895 40.289 13.9895 36.352Z" fill="#0098E1"/>
<path d="M9.98946 24.352C14.5925 24.352 19.1956 24.352 23.9382 24.352C23.9382 25.2006 23.9382 26.0491 23.9382 26.9234C24.8013 27.3477 25.6643 27.772 26.5536 28.2091C26.5536 29.0577 26.5536 29.9063 26.5536 30.7806C32.3074 31.2048 38.0613 31.6291 43.9895 32.0663C43.9895 32.4906 43.9895 32.9148 43.9895 33.352C33.3448 33.352 22.7002 33.352 11.733 33.352C11.1577 30.382 10.5823 27.412 9.98946 24.352Z" fill="#5CBFF1"/>
<path d="M-0.0105438 4.35199C3.14598 4.35199 6.3025 4.35199 9.55467 4.35199C9.84163 6.15199 10.1286 7.95199 10.4242 9.80654C13.5808 9.80654 16.7373 9.80654 19.9895 9.80654C19.9895 10.1665 19.9895 10.5265 19.9895 10.8974C18.2677 10.8974 16.546 10.8974 14.7721 10.8974C14.4851 12.6974 14.1982 14.4974 13.9025 16.352C11.6068 16.352 9.3112 16.352 6.94598 16.352C6.65902 15.272 6.37206 14.192 6.07641 13.0793C4.64163 12.7193 3.20685 12.3593 1.72859 11.9884C1.15467 9.46835 0.580761 6.94835 -0.0105438 4.35199Z" fill="#5AB9FB"/>
<path d="M45.4246 52.4405C47.0804 55.6891 47.0804 55.6891 46.9252 58.3963C46.1842 61.3783 45.8111 62.694 43.7688 64.352C41.2332 64.2166 41.2332 64.2166 38.8012 63.2691C37.017 59.7687 36.7574 58.6653 37.1454 54.6062C39.135 50.014 41.9348 51.2787 45.4246 52.4405Z" fill="#094F71"/>
<path d="M26.9376 52.4186C28.1798 55.4875 28.096 57.7059 27.8159 61.0974C26.3338 63.1993 26.3338 63.1993 24.3028 64.352C21.9973 64.2164 21.9973 64.2164 19.9114 63.2671C18.0187 59.7603 17.7433 58.6549 18.1548 54.5883C20.2663 49.9857 23.2288 51.3157 26.9376 52.4186Z" fill="#01557B"/>
<path d="M41.9368 33.352C42.2147 34.5216 42.4926 35.6913 42.7789 36.8964C44.1684 36.1166 45.5579 35.3368 46.9895 34.5335C45.7527 42.3418 45.7527 42.3418 43.9105 44.2436C41.2902 45.469 39.0084 45.3916 36.2526 45.3143C35.267 45.293 34.2813 45.2717 33.2658 45.2497C32.139 45.2086 32.139 45.2086 30.9895 45.1666C31.5311 44.8255 32.0728 44.4843 32.6309 44.1328C34.5 43.026 34.5 43.026 35.0421 40.4408C36.0421 38.0778 36.0421 38.0778 39.0947 36.601C40.0326 36.3086 40.9705 36.0162 41.9368 35.7149C41.9368 34.9352 41.9368 34.1554 41.9368 33.352Z" fill="#0D8AC1"/>
<path d="M23.8718 11.352C28.2395 11.352 32.6071 11.352 37.1071 11.352C37.3983 12.6573 37.6895 13.9625 37.9895 15.3074C32.9897 16.5189 28.0744 16.3874 22.9895 16.2962C23.2806 14.6646 23.5718 13.033 23.8718 11.352Z" fill="#0098E1"/>
<path d="M28.9895 9.35199C38.5595 9.35199 48.1295 9.35199 57.9895 9.35199C57.6995 10.1129 57.4095 10.8737 57.1107 11.6577C52.1807 11.6577 47.2507 11.6577 42.1713 11.6577C44.3463 12.2283 44.3463 12.2283 46.5652 12.8105C46.5652 13.5713 46.5652 14.3322 46.5652 15.1161C43.5227 16.3465 40.7297 16.3863 37.5576 16.341C36.6106 16.3306 35.6636 16.3202 34.6878 16.3095C33.9674 16.2961 33.2469 16.2828 32.5046 16.269C32.5046 15.8885 32.5046 15.5081 32.5046 15.1161C34.2446 15.1161 35.9846 15.1161 37.7773 15.1161C37.4873 13.5944 37.1973 12.0727 36.8985 10.5048C34.2885 10.5048 31.6785 10.5048 28.9895 10.5048C28.9895 10.1244 28.9895 9.74395 28.9895 9.35199Z" fill="#1491C7"/>
<path d="M22.9895 22.4944C24.6227 22.4548 26.2561 22.4267 27.8895 22.4033C29.2538 22.3779 29.2538 22.3779 30.6457 22.352C32.9365 22.477 34.807 22.9218 36.9895 23.9532C36.1728 29.6058 36.1728 29.6058 35.1228 31.2469C33.3934 31.3523 31.6617 31.3691 29.9311 31.338C28.9867 31.3249 28.0422 31.3117 27.0691 31.2981C26.3388 31.2812 25.6085 31.2643 24.8561 31.2469C24.8561 29.8027 24.8561 28.3586 24.8561 26.8707C24.2401 26.3893 23.6241 25.9079 22.9895 25.4119C22.9895 24.4491 22.9895 23.4864 22.9895 22.4944Z" fill="#01A6F1"/>
<path d="M13.9895 36.352C16.9595 36.352 19.9295 36.352 22.9895 36.352C22.1795 36.7763 21.3695 37.2006 20.5349 37.6377C20.8049 40.1834 21.0749 42.7291 21.3531 45.352C19.4631 45.352 17.5731 45.352 15.6258 45.352C14.4308 41.9482 13.9895 40.3448 13.9895 36.352Z" fill="#4DB6F5"/>
<path d="M26.4229 36.3538C27.1549 36.3579 27.8868 36.3619 28.641 36.3662C29.7824 36.3821 29.7824 36.3821 30.9468 36.3983C32.1033 36.4069 32.1033 36.4069 33.283 36.4157C35.1852 36.4306 37.0873 36.4515 38.9895 36.4776C38.9895 36.8959 38.9895 37.3143 38.9895 37.7454C33.8595 37.7454 28.7295 37.7454 23.444 37.7454C23.444 39.8372 23.444 41.929 23.444 44.0842C25.724 44.0842 28.004 44.0842 30.3531 44.0842C30.3531 44.5026 30.3531 44.9209 30.3531 45.352C27.2181 45.352 24.0831 45.352 20.8531 45.352C19.9895 40.2809 19.9895 40.2809 19.9895 37.7454C22.4285 36.5519 23.901 36.3289 26.4229 36.3538Z" fill="#2DA8E7"/>
<path d="M22.0421 11.352C22.6326 11.737 23.2231 12.122 23.8316 12.5187C23.5363 14.0587 23.241 15.5987 22.9368 17.1853C25.5942 17.1853 28.2516 17.1853 30.9895 17.1853C30.9895 17.5703 30.9895 17.9553 30.9895 18.352C25.3795 18.352 19.7695 18.352 13.9895 18.352C15.1705 17.582 16.3516 16.812 17.5684 16.0187C18.1589 14.8637 18.7495 13.7087 19.3579 12.5187C20.2437 12.1337 21.1295 11.7487 22.0421 11.352Z" fill="#24A9EA"/>
<path d="M20.7167 51.352C24.0122 51.7739 24.0122 51.7739 27.0804 52.477C27.3804 55.0757 27.6804 57.6745 27.9895 60.352C27.3895 59.9807 26.7895 59.6095 26.1713 59.227C25.6031 56.9067 25.6031 56.9067 25.2622 54.727C23.4979 55.0377 23.4979 55.0377 21.6258 55.852C20.7258 57.5226 20.7258 57.5226 19.8076 59.227C19.2076 59.227 18.6076 59.227 17.9895 59.227C18.6713 53.8832 18.6713 53.8832 20.7167 51.352Z" fill="#0F4A64"/>
<path d="M38.9895 51.352C42.0265 51.6905 42.0265 51.6905 45.2886 52.4353C47.0884 55.6853 47.0884 55.6853 46.9196 58.3937C46.1238 61.3416 45.6574 62.6737 43.4888 64.352C41.0704 64.0134 41.0704 64.0134 38.9895 63.2687C40.7892 62.1853 42.589 61.102 44.3887 60.0187C44.9786 57.2807 44.9786 57.2807 45.2886 54.602C43.2099 53.887 41.1312 53.172 38.9895 52.4353C38.9895 52.0778 38.9895 51.7203 38.9895 51.352Z" fill="#275A71"/>
<path d="M26.9895 24.4265C33.7427 24.2625 33.7427 24.2625 36.9895 25.5748C36.194 30.0243 36.194 30.0243 35.1713 31.3161C33.6566 31.3628 32.1405 31.3651 30.6258 31.3161C30.9258 30.1793 31.2258 29.0425 31.5349 27.8713C29.2849 26.7345 29.2849 26.7345 26.9895 25.5748C26.9895 25.1958 26.9895 24.8169 26.9895 24.4265Z" fill="#0098D7"/>
<path d="M9.98946 24.352C14.4358 24.352 18.8821 24.352 23.4631 24.352C23.4631 25.122 23.4631 25.892 23.4631 26.6853C24.2968 27.0703 25.1305 27.4553 25.9895 27.852C25.7116 29.007 25.4337 30.162 25.1474 31.352C24.5916 31.352 24.0358 31.352 23.4631 31.352C23.4631 30.197 23.4631 29.042 23.4631 27.852C19.0168 27.082 14.5705 26.312 9.98946 25.5187C9.98946 25.1337 9.98946 24.7487 9.98946 24.352Z" fill="#29AFF6"/>
<path d="M49.4339 29.352C49.9472 29.7232 50.4606 30.0945 50.9895 30.477C49.9628 33.0757 48.9361 35.6745 47.8783 38.352C47.6217 37.2382 47.365 36.1245 47.1006 34.977C46.0739 35.3482 45.0472 35.7195 43.9895 36.102C44.2461 34.2457 44.5028 32.3895 44.7672 30.477C46.6922 31.5907 46.6922 31.5907 48.6561 32.727C48.9128 31.6132 49.1695 30.4995 49.4339 29.352Z" fill="#057DB5"/>
<path d="M17.9895 58.352C18.6391 58.8047 19.2888 59.2575 19.9582 59.7239C23.0384 61.0224 24.1835 60.3074 26.9895 58.352C26.9895 59.5593 26.9895 60.7666 26.9895 62.0105C24.2895 64.4496 24.2895 64.4496 21.9832 64.2971C19.7895 63.23 19.7895 63.23 18.6082 60.7148C18.404 59.9351 18.1998 59.1553 17.9895 58.352Z" fill="#1F5473"/>
<path d="M23.9895 11.352C25.3095 11.352 26.6295 11.352 27.9895 11.352C27.6595 13.002 27.3295 14.652 26.9895 16.352C25.6695 16.352 24.3495 16.352 22.9895 16.352C23.3195 14.702 23.6495 13.052 23.9895 11.352Z" fill="#05A6F8"/>
<path d="M17.9895 25.352C19.6395 26.144 21.2895 26.936 22.9895 27.752C22.9895 28.94 22.9895 30.128 22.9895 31.352C21.6145 31.352 20.2395 31.352 18.8228 31.352C18.5478 29.372 18.2728 27.392 17.9895 25.352Z" fill="#3CB4FD"/>
<path d="M23.9895 38.352C25.6395 38.352 27.2895 38.352 28.9895 38.352C28.1645 38.946 28.1645 38.946 27.3228 39.552C26.7793 41.9815 26.7793 41.9815 26.4895 44.352C25.6645 44.352 24.8395 44.352 23.9895 44.352C23.9895 42.372 23.9895 40.392 23.9895 38.352Z" fill="#06A7F8"/>
</g>
<defs>
<clipPath id="clip0_0_1">
<rect width="58" height="76" fill="white"/>
</clipPath>
</defs>
</svg>
